<?xml version="1.0" encoding="UTF-8" standalone="no"?>
<!-- Created with Inkscape (http://www.inkscape.org/) -->

<svg
   xmlns:osb="http://www.openswatchbook.org/uri/2009/osb"
   xmlns:dc="http://purl.org/dc/elements/1.1/"
   xmlns:cc="http://creativecommons.org/ns#"
   xmlns:rdf="http://www.w3.org/1999/02/22-rdf-syntax-ns#"
   xmlns:svg="http://www.w3.org/2000/svg"
   xmlns="http://www.w3.org/2000/svg"
   xmlns:sodipodi="http://sodipodi.sourceforge.net/DTD/sodipodi-0.dtd"
   xmlns:inkscape="http://www.inkscape.org/namespaces/inkscape"
   width="744.09448819"
   height="1052.3622047"
   id="svg2"
   version="1.1"
   inkscape:version="0.48.1 r9760"
   sodipodi:docname="New document 1">
  <defs
     id="defs4">
    <linearGradient
       id="linearGradient3789"
       osb:paint="solid">
      <stop
         style="stop-color:#000000;stop-opacity:1;"
         offset="0"
         id="stop3791" />
    </linearGradient>
    <linearGradient
       id="linearGradient3757"
       osb:paint="solid">
      <stop
         style="stop-color:#000000;stop-opacity:1;"
         offset="0"
         id="stop3759" />
    </linearGradient>
  </defs>
  <sodipodi:namedview
     id="base"
     pagecolor="#ffffff"
     bordercolor="#666666"
     borderopacity="1.0"
     inkscape:pageopacity="0.0"
     inkscape:pageshadow="2"
     inkscape:zoom="0.35"
     inkscape:cx="375"
     inkscape:cy="634.28571"
     inkscape:document-units="px"
     inkscape:current-layer="layer1"
     showgrid="false"
     inkscape:window-width="1031"
     inkscape:window-height="665"
     inkscape:window-x="20"
     inkscape:window-y="20"
     inkscape:window-maximized="0" />
  <metadata
     id="metadata7">
    <rdf:RDF>
      <cc:Work
         rdf:about="">
        <dc:format>image/svg+xml</dc:format>
        <dc:type
           rdf:resource="http://purl.org/dc/dcmitype/StillImage" />
        <dc:title></dc:title>
      </cc:Work>
    </rdf:RDF>
  </metadata>
  <g
     inkscape:label="Layer 1"
     inkscape:groupmode="layer"
     id="layer1">
    <path
       style="fill:#d4aa00;fill-opacity:1;stroke:none"
       id="path3823"
       d="m 9.016249,742.19466 c 22.89829,-12.96463 45.739346,-26.03088 68.694869,-38.8939 5.865622,-3.28677 12.088813,-6.05336 17.998136,-9.28861 2.443485,-1.33776 9.699416,-5.48468 7.286736,-4.09214 -18.500661,10.67811 -37.034055,21.2994 -55.551081,31.9491 23.379812,-13.3816 46.758434,-26.76528 70.139431,-40.1448 12.36935,-7.07822 25.27049,-12.36224 38.79688,-16.80883 15.13459,-5.05239 30.38707,-9.47634 46.11515,-12.21339 13.34375,-2.11586 26.87826,-2.08182 40.34878,-2.18252 16.08258,0.0459 32.16408,0.27274 48.24583,0.43904 11.37671,0.77005 22.96922,0.59868 34.23484,2.63764 0.62534,0.11318 12.63986,3.2424 13.44754,3.45197 12.66981,3.19054 23.83794,9.8697 35.24217,15.9614 10.157,5.41389 20.45851,10.8527 31.768,13.3287 9.22199,2.69458 18.45991,4.9876 28.01524,6.10171 8.1094,0.88383 16.26072,0.65571 24.39754,0.61939 8.27321,0.10148 16.54472,0.18083 24.81844,0.11034 8.72963,-0.45511 17.25984,0.3783 25.88141,1.57585 6.81599,1.00007 13.71478,1.07689 20.58911,1.11692 5.66335,0.0815 11.32541,-0.14814 16.98774,-0.0673 5.35202,0.52918 9.61615,-0.6779 14.69784,-1.97059 5.89224,-1.13772 11.67127,-2.77757 17.73084,-3.22085 5.72207,-1.99201 11.86931,-2.21683 17.64662,-3.84336 6.7258,-0.82865 12.98591,-3.11836 19.62856,-4.43048 5.64842,-0.803 11.37675,-0.79651 17.07146,-0.9558 2.86179,0.006 5.7233,-0.0239 8.58501,-0.0121 0,0 -61.66981,44.79022 -61.66981,44.79022 l 0,0 c -2.77365,0.002 -5.54704,-0.0383 -8.31965,0.0738 -5.37122,0.12177 -10.74703,0.56557 -15.97103,1.88759 -6.54084,1.51187 -12.99444,3.30186 -19.62056,4.46125 -5.9988,0.9737 -11.89165,2.50486 -17.9186,3.30748 -5.93868,1.21174 -11.79701,2.73056 -17.74512,3.86345 -5.15044,0.80889 -10.28349,0.78071 -15.4928,0.6487 -5.61411,0.0837 -11.22872,-0.12762 -16.84001,-0.29351 -7.07081,-0.3361 -14.19324,-0.52328 -21.16784,-1.819 -8.21609,-1.29324 -16.5069,-1.13314 -24.80512,-0.97064 -8.45074,-0.0416 -16.89804,0.11353 -25.34822,0.1592 -8.17882,-0.2077 -16.37252,-0.84075 -24.49145,-1.82217 -9.6511,-1.73184 -19.02379,-4.57879 -28.53975,-6.90838 -11.12832,-3.81124 -21.17751,-10.11893 -31.74607,-15.21052 -11.05093,-5.71837 -22.16073,-11.43104 -34.30979,-14.48213 -14.94385,-3.68133 -30.15535,-5.47143 -45.57499,-5.36955 -16.40912,0.11196 -32.8185,0.19158 -49.22674,0.40089 -13.17331,0.22584 -26.39418,0.66727 -39.38576,3.05961 -15.35599,3.09688 -30.2736,7.77249 -45.095241,12.81471 -7.851698,2.88708 -15.570175,5.93366 -23.0803,9.64261 -22.955266,11.33671 -60.05449,36.41391 40.345881,-24.03902 -23.25354,13.43424 -46.478601,26.91791 -69.760626,40.30273 -7.037256,4.04571 -14.28366,7.79421 -21.521466,11.46662 -1.883747,0.9558 -7.498234,3.88658 -5.675723,2.81863 20.341014,-11.91934 40.828744,-23.58652 61.243117,-35.37978 0,0 -71.099423,27.42982 -71.099423,27.42982 z"
       inkscape:connector-curvature="0" />
    <g
       id="g3825">
      <g
         transform="matrix(0.78373719,-0.78373718,0.78373718,0.78373719,-237.03637,201.9122)"
         id="g3800">
        <a
           id="a3797">
          <rect
             transform="scale(1,-1)"
             y="-720.93359"
             x="122.85714"
             height="514.28571"
             width="188.57143"
             id="rect2987"
             style="fill:#d4aa00;stroke:#000000;stroke-width:13;stroke-miterlimit:4;stroke-opacity:1;stroke-dasharray:none" />
        </a>
        <rect
           style="fill:#ffdd55;fill-opacity:1;stroke:none"
           id="rect3795"
           width="85.714272"
           height="500.00012"
           x="128.57143"
           y="212.36218" />
      </g>
      <path
         sodipodi:nodetypes="ccccccc"
         inkscape:connector-curvature="0"
         id="path3817"
         d="m 415.30038,674.98584 c 118.26759,20.87502 113.65976,19.48337 113.65976,19.48337 l 47.61423,29.22505 55.29393,-50.1001 -29.1829,-40.35839 -21.5032,-111.33353 z"
         style="fill:#24221c;fill-opacity:1;stroke:#000000;stroke-width:0.72366661px;stroke-linecap:butt;stroke-linejoin:miter;stroke-opacity:1" />
    </g>
  </g>
</svg>
